# xmcd CD database file
#
# Track frame offsets:
#	150
#	22191
#	53128
#	83358
#	122387
#	165011
#
# Disc length: 2462 seconds
#
# Revision: 0
# Processed by: cddbd v1.5.1PL0 Copyright (c) Steve Scherf et al.
# Submitted via: CDex 1.50beta10
#
DISCID=34099c06
DTITLE=Benny Golson - Gone With Golson
DYEAR=1959
DGENRE=Jazz
TTITLE0=Staccato Swing
TTITLE1=Autumn Leaves
TTITLE2=Soul Me
TTITLE3=Blues After Dark
TTITLE4=Jam For Bobbie
TTITLE5=A Bit Of Heaven
EXTD=YEAR: 1959
EXTT0=
EXTT1=
EXTT2=
EXTT3=
EXTT4=
EXTT5=
PLAYORDER=
